<svg width="125" height="28" viewBox="0 0 125 28" fill="none" xmlns="http://www.w3.org/2000/svg">
<path d="M0 27.1149V1.57489H6.87278C10.5187 1.57489 13.2267 2.18408 14.9968 3.40244C16.7668 4.62081 17.6519 6.48405 17.6519 8.99217C17.6519 11.3832 16.797 13.2404 15.0872 14.5638C13.3774 15.8873 10.9796 16.549 7.89371 16.549C7.5021 16.549 7.2033 16.5462 6.99731 16.5406C6.79289 16.5406 6.60022 16.5261 6.41812 16.5141L6.40285 27.1149H0ZM6.40285 12.6485C6.47804 12.6485 6.59552 12.6545 6.7553 12.6653C6.91507 12.6761 7.03138 12.6834 7.10775 12.6834C8.51755 12.6834 9.58782 12.3713 10.3186 11.7473C11.0493 11.1233 11.4163 10.2282 11.4194 9.06195C11.4194 7.8492 11.0712 6.95407 10.375 6.37657C9.67867 5.79907 8.5896 5.51032 7.10775 5.51032C7.03138 5.51032 6.91507 5.51633 6.7553 5.52837C6.59552 5.5404 6.47921 5.54521 6.40285 5.54521V12.6485Z" fill="#0BAA4B"/>
<path d="M23.2359 19.8035V19.943C23.2359 21.2264 23.5308 22.2117 24.1205 22.8991C24.7103 23.5865 25.5499 23.9306 26.6394 23.9314C27.2674 23.9502 27.8871 23.7799 28.4216 23.4417C28.9127 23.1153 29.3098 22.6196 29.6129 21.9546H34.8996C34.4156 23.6695 33.4135 25.0106 31.8932 25.9779C30.373 26.9452 28.5085 27.4293 26.2998 27.4301C23.5304 27.4301 21.3291 26.6312 19.6961 25.0335C18.0631 23.4357 17.2462 21.2781 17.2454 18.5606C17.2454 15.8087 18.0623 13.6338 19.6961 12.0361C21.3299 10.4383 23.5311 9.63945 26.2998 9.63945C29.2346 9.63945 31.4507 10.4267 32.9482 12.0012C34.4457 13.5757 35.1945 15.9017 35.1945 18.9793V19.8023L23.2359 19.8035ZM29.7938 17.0736C29.7492 15.8255 29.4578 14.9031 28.9197 14.3064C28.3816 13.7096 27.5761 13.4092 26.5031 13.4052C25.445 13.4052 24.6359 13.7201 24.0759 14.3497C23.5159 14.9793 23.2359 15.8949 23.2359 17.0964L29.7938 17.0736Z" fill="#0BAA4B"/>
<path d="M38.3489 27.1149L38.3642 9.63824H44.0622C44.0622 10.7612 44.0641 11.8809 44.068 12.9974C44.5677 11.8785 45.2335 11.0419 46.0653 10.4877C46.897 9.93341 47.9031 9.65268 49.0834 9.64546V14.1584H48.6757C47.0568 14.1584 45.956 14.4528 45.3733 15.0415C44.7906 15.6302 44.4996 16.9685 44.5004 19.0563V27.1173L38.3489 27.1149Z" fill="#0BAA4B"/>
<path d="M76.2902 19.8035V19.943C76.2902 21.2264 76.5851 22.2117 77.1749 22.8991C77.7646 23.5865 78.6042 23.9306 79.6937 23.9314C80.3214 23.9503 80.9407 23.78 81.4747 23.4417C81.9674 23.1153 82.3649 22.6196 82.6672 21.9546H87.954C87.4699 23.6695 86.4678 25.0106 84.9476 25.9779C83.4273 26.9452 81.5625 27.4293 79.353 27.4301C76.5851 27.4301 74.3842 26.6312 72.7504 25.0335C71.1166 23.4357 70.2997 21.2781 70.2997 18.5606C70.2997 15.8087 71.1166 13.6338 72.7504 12.0361C74.3842 10.4383 76.5851 9.63945 79.353 9.63945C82.2885 9.63945 84.505 10.4267 86.0026 12.0012C87.5001 13.5757 88.2488 15.9017 88.2488 18.9793V19.8023L76.2902 19.8035ZM82.8481 17.0736C82.8019 15.8255 82.5106 14.9031 81.9741 14.3064C81.4375 13.7096 80.632 13.4092 79.5574 13.4052C78.4993 13.4052 77.6902 13.7201 77.1302 14.3497C76.5702 14.9793 76.2902 15.8949 76.2902 17.0964L82.8481 17.0736Z" fill="#0BAA4B"/>
<path d="M97.5535 17.0038C97.7039 16.6886 98.0442 16.1054 98.5745 15.2544L98.847 14.8345L102 9.95346H108.922L103.362 17.0916L109.354 27.1149H102.523L97.5535 17.7557V27.1149H91.4033V0H97.5535V17.0038Z" fill="#0BAA4B"/>
<path d="M111.156 25.6458L113.697 22.164C114.333 22.4977 114.994 22.7816 115.672 23.0134C116.162 23.1805 116.673 23.2706 117.19 23.2805C117.606 23.2966 118.016 23.1738 118.357 22.9304C118.501 22.836 118.619 22.7067 118.701 22.554C118.783 22.4012 118.826 22.23 118.827 22.0557C118.827 21.4493 118.071 20.7848 116.559 20.0621C116.165 19.8756 115.862 19.7289 115.651 19.6242C114.199 18.8662 113.178 18.1287 112.588 17.4116C112 16.7018 111.685 15.7966 111.702 14.8658C111.702 13.256 112.353 11.9819 113.653 11.0435C114.954 10.1051 116.71 9.63584 118.919 9.63584C119.984 9.63193 121.046 9.75303 122.084 9.99678C123.098 10.2383 124.078 10.6115 125 11.1073L122.388 14.4977C121.872 14.1513 121.321 13.8636 120.744 13.6398C120.29 13.4638 119.81 13.3694 119.324 13.3607C118.825 13.3607 118.421 13.4654 118.111 13.6747C117.969 13.7575 117.85 13.8771 117.768 14.0216C117.685 14.1661 117.642 14.3303 117.641 14.4977C117.641 14.9998 118.346 15.5829 119.756 16.247C120.195 16.4564 120.534 16.626 120.778 16.7535C122.351 17.5933 123.448 18.3894 124.067 19.1417C124.685 19.8854 125.015 20.8344 124.998 21.8103C124.998 23.4778 124.287 24.8305 122.865 25.8684C121.444 26.9063 119.583 27.4253 117.283 27.4253C116.201 27.4305 115.124 27.2836 114.082 26.9885C113.048 26.6883 112.063 26.236 111.156 25.6458Z" fill="#0BAA4B"/>
<path d="M62.9829 9.34949C62.7766 10.2438 62.7498 11.1717 62.9041 12.077C63.9505 10.5273 65.3328 9.24659 66.943 8.3351C68.5531 7.42361 70.3474 6.90605 72.1853 6.82293C68.0605 7.8877 65.9975 9.85721 65.0188 11.0339C64.3492 11.84 63.7782 12.7676 62.9429 14.1223C61.6811 16.1676 60.7648 17.941 60.1633 19.1754L54.9446 9.24001H50.2453L60.1456 27.7778L65.3267 16.8041C64.8836 16.8699 64.4321 16.8445 63.9987 16.7292C63.5654 16.6139 63.1589 16.4111 62.8031 16.1327C62.8947 15.9547 62.986 15.7758 63.0769 15.5961C63.7559 15.9077 64.9072 16.2951 66.115 15.927C67.2616 15.5781 67.8937 14.7239 68.5821 13.842C69.7887 12.302 71.7471 9.95226 72.7728 9.02946C73.9852 7.93823 76.1034 6.85421 80.0567 7.10446C77.2771 3.91738 73.2768 2.41227 69.6395 3.33386C67.2158 3.94625 63.7935 5.92419 62.9829 9.34949Z" fill="#0BAA4B"/>
<path d="M59.2563 9.38078C58.2513 8.9517 57.205 8.63192 56.1348 8.4267C56.8137 9.57193 57.3415 10.8042 57.7043 12.0914C57.991 13.1237 58.1108 13.9226 58.777 14.4905C59.3879 15.0126 60.2173 15.0258 60.8047 14.9621L60.9222 15.9535L61.4744 15.2737L61.3369 14.4231L61.3087 14.3533L61.2817 14.2823C60.699 12.8049 59.1881 11.3695 59.1881 11.3695C58.8189 11.021 58.4264 10.6994 58.0133 10.407C58.3482 10.4795 58.6721 10.5972 58.9767 10.7572C59.7309 11.1518 60.1515 11.6992 60.578 12.2502C60.998 12.8035 61.3463 13.4101 61.6142 14.0549L61.6917 13.9502C61.6917 13.9502 62.1499 11.6727 60.8176 10.2771C60.7213 10.1664 60.4053 9.87165 59.2563 9.38078Z" fill="#0BAA4B"/>
</svg>
